<svg xmlns="http://www.w3.org/2000/svg" width="156" height="32" viewBox="0 0 156 32" fill="none"><path d="M44.577 8.1965H47.814V12.09C47.333 12.441 46.8195 12.6988 46.2735 12.8635C45.7318 13.0238 45.1577 13.104 44.551 13.104C43.7753 13.104 43.0733 12.9848 42.445 12.7465C41.8167 12.5038 41.2793 12.168 40.833 11.739C40.3867 11.31 40.0422 10.8008 39.7995 10.2115C39.5568 9.62217 39.4355 8.97867 39.4355 8.281C39.4355 7.57467 39.5503 6.92683 39.78 6.3375C40.014 5.74817 40.3455 5.24117 40.7745 4.8165C41.2035 4.39183 41.7213 4.06033 42.328 3.822C42.939 3.58367 43.6215 3.4645 44.3755 3.4645C44.7655 3.4645 45.1295 3.497 45.4675 3.562C45.8055 3.62267 46.1175 3.70933 46.4035 3.822C46.6895 3.93033 46.9517 4.06033 47.19 4.212C47.4283 4.36367 47.645 4.5305 47.84 4.7125L47.2745 5.5835C47.1878 5.72217 47.0752 5.80667 46.9365 5.837C46.7978 5.86733 46.6462 5.83267 46.4815 5.733C46.3255 5.63767 46.1717 5.55317 46.02 5.4795C45.8727 5.4015 45.7145 5.33433 45.5455 5.278C45.3765 5.22167 45.1923 5.17833 44.993 5.148C44.7937 5.11767 44.564 5.1025 44.304 5.1025C43.8663 5.1025 43.4698 5.17833 43.1145 5.33C42.7592 5.48167 42.4558 5.69617 42.2045 5.9735C41.9575 6.25083 41.7668 6.5845 41.6325 6.9745C41.4982 7.3645 41.431 7.8 41.431 8.281C41.431 8.801 41.5047 9.26683 41.652 9.6785C41.7993 10.0858 42.0073 10.4303 42.276 10.712C42.5447 10.9937 42.8653 11.2082 43.238 11.3555C43.615 11.5028 44.0332 11.5765 44.4925 11.5765C44.8045 11.5765 45.0818 11.5462 45.3245 11.4855C45.5715 11.4205 45.812 11.3338 46.046 11.2255V9.6395H44.98C44.8543 9.6395 44.7547 9.607 44.681 9.542C44.6117 9.47267 44.577 9.386 44.577 9.282V8.1965ZM53.2689 11.44C53.5853 11.44 53.8691 11.388 54.1204 11.284C54.3718 11.1757 54.5841 11.024 54.7574 10.829C54.9308 10.634 55.0629 10.3978 55.1539 10.1205C55.2449 9.84317 55.2904 9.53117 55.2904 9.1845V3.5685H57.2404V9.1845C57.2404 9.7565 57.1473 10.283 56.9609 10.764C56.7789 11.2407 56.5168 11.6523 56.1744 11.999C55.8321 12.3457 55.4161 12.6165 54.9264 12.8115C54.4368 13.0065 53.8843 13.104 53.2689 13.104C52.6536 13.104 52.0989 13.0065 51.6049 12.8115C51.1153 12.6165 50.6993 12.3457 50.3569 11.999C50.0146 11.6523 49.7503 11.2407 49.5639 10.764C49.3819 10.283 49.2909 9.7565 49.2909 9.1845V3.5685H51.2409V9.1845C51.2409 9.53117 51.2864 9.84317 51.3774 10.1205C51.4684 10.3978 51.6006 10.634 51.7739 10.829C51.9473 11.024 52.1596 11.1757 52.4109 11.284C52.6623 11.388 52.9483 11.44 53.2689 11.44ZM67.1739 3.5685V13H65.2109V8.9375H61.0574V13H59.0944V3.5685H61.0574V7.5725H65.2109V3.5685H67.1739ZM72.1001 8.034C72.4165 8.034 72.6895 7.995 72.9191 7.917C73.1488 7.83467 73.3373 7.72417 73.4846 7.5855C73.632 7.4425 73.7403 7.27567 73.8096 7.085C73.879 6.89433 73.9136 6.68633 73.9136 6.461C73.9136 6.01467 73.7641 5.668 73.4651 5.421C73.1705 5.174 72.7198 5.0505 72.1131 5.0505H71.0991V8.034H72.1001ZM76.6696 13H74.9081C74.5788 13 74.3405 12.8743 74.1931 12.623L72.3991 9.7305C72.3255 9.61783 72.2431 9.5355 72.1521 9.4835C72.0655 9.4315 71.9355 9.4055 71.7621 9.4055H71.0991V13H69.1491V3.5685H72.1131C72.7718 3.5685 73.3351 3.63783 73.8031 3.7765C74.2711 3.91083 74.6546 4.09933 74.9536 4.342C75.2526 4.58467 75.4715 4.875 75.6101 5.213C75.7488 5.54667 75.8181 5.915 75.8181 6.318C75.8181 6.63 75.7726 6.92683 75.6816 7.2085C75.595 7.48583 75.4671 7.73933 75.2981 7.969C75.1291 8.19867 74.9211 8.40233 74.6741 8.58C74.4271 8.75767 74.1455 8.90067 73.8291 9.009C73.9548 9.07833 74.0718 9.16283 74.1801 9.2625C74.2885 9.35783 74.386 9.47267 74.4726 9.607L76.6696 13Z" fill="white"></path><path d="M30.5051 31.4429H31.1866V1.00287H30.5051V31.4429Z" fill="#D0B578"></path><path d="M45.006 21.239C44.9583 21.317 44.9085 21.3755 44.8565 21.4145C44.8045 21.4492 44.7395 21.4665 44.6615 21.4665C44.5792 21.4665 44.486 21.4318 44.382 21.3625C44.2823 21.2932 44.1567 21.2173 44.005 21.135C43.8577 21.0483 43.6822 20.9703 43.4785 20.901C43.2748 20.8273 43.0322 20.7905 42.7505 20.7905C42.4905 20.7905 42.2608 20.823 42.0615 20.888C41.8665 20.953 41.7018 21.044 41.5675 21.161C41.4332 21.278 41.3313 21.4167 41.262 21.577C41.197 21.733 41.1645 21.9042 41.1645 22.0905C41.1645 22.3288 41.2273 22.5282 41.353 22.6885C41.4787 22.8445 41.6433 22.9788 41.847 23.0915C42.055 23.2042 42.2912 23.3038 42.5555 23.3905C42.8198 23.4728 43.0885 23.5617 43.3615 23.657C43.6388 23.7523 43.9097 23.8607 44.174 23.982C44.4383 24.1033 44.6723 24.2572 44.876 24.4435C45.084 24.6298 45.2508 24.8573 45.3765 25.126C45.5022 25.3947 45.565 25.7218 45.565 26.1075C45.565 26.5235 45.4935 26.9135 45.3505 27.2775C45.2075 27.6415 44.9995 27.96 44.7265 28.233C44.4578 28.5017 44.1242 28.714 43.7255 28.87C43.3312 29.026 42.8805 29.104 42.3735 29.104C42.0745 29.104 41.782 29.0737 41.496 29.013C41.2143 28.9567 40.9435 28.8765 40.6835 28.7725C40.4278 28.6642 40.1873 28.5342 39.962 28.3825C39.7367 28.2308 39.5352 28.0618 39.3575 27.8755L39.7995 27.1475C39.8385 27.0868 39.8883 27.0392 39.949 27.0045C40.0097 26.9698 40.0768 26.9525 40.1505 26.9525C40.2502 26.9525 40.3607 27.0002 40.482 27.0955C40.6033 27.1865 40.7485 27.2883 40.9175 27.401C41.0908 27.5093 41.2988 27.6112 41.5415 27.7065C41.7842 27.7975 42.0745 27.843 42.4125 27.843C42.9628 27.843 43.3875 27.7087 43.6865 27.44C43.9898 27.1713 44.1415 26.8008 44.1415 26.3285C44.1415 26.0642 44.0787 25.8497 43.953 25.685C43.8273 25.516 43.6605 25.3752 43.4525 25.2625C43.2488 25.1498 43.0148 25.0545 42.7505 24.9765C42.4862 24.8985 42.2175 24.8162 41.9445 24.7295C41.6715 24.6385 41.4028 24.5345 41.1385 24.4175C40.8742 24.2962 40.638 24.1402 40.43 23.9495C40.2263 23.7545 40.0617 23.5162 39.936 23.2345C39.8103 22.9485 39.7475 22.5932 39.7475 22.1685C39.7475 21.8305 39.8125 21.5033 39.9425 21.187C40.0768 20.8707 40.2697 20.5912 40.521 20.3485C40.7767 20.1015 41.0908 19.9043 41.4635 19.757C41.8362 19.6097 42.2608 19.536 42.7375 19.536C43.2748 19.536 43.7667 19.6205 44.213 19.7895C44.6637 19.9585 45.0515 20.199 45.3765 20.511L45.006 21.239ZM53.6497 20.9075H50.7312V29H49.2167V20.9075H46.2917V19.64H53.6497V20.9075ZM60.7958 27.7715L60.7893 29H54.9523V19.64H60.7893V20.8685H56.4798V23.6895H59.9248V24.879H56.4798V27.7715H60.7958ZM66.1346 27.7715C66.4942 27.7715 66.8149 27.7108 67.0966 27.5895C67.3826 27.4682 67.6231 27.2992 67.8181 27.0825C68.0174 26.8658 68.1691 26.6058 68.2731 26.3025C68.3771 25.9948 68.4291 25.6547 68.4291 25.282V19.64H69.9436V25.282C69.9436 25.8323 69.8547 26.3415 69.6771 26.8095C69.5037 27.2775 69.2524 27.6827 68.9231 28.025C68.5937 28.363 68.1929 28.6295 67.7206 28.8245C67.2526 29.0152 66.7239 29.1105 66.1346 29.1105C65.5452 29.1105 65.0144 29.0152 64.5421 28.8245C64.0741 28.6295 63.6754 28.363 63.3461 28.025C63.0167 27.6827 62.7632 27.2775 62.5856 26.8095C62.4122 26.3415 62.3256 25.8323 62.3256 25.282V19.64H63.8466V25.2755C63.8466 25.6482 63.8986 25.9883 64.0026 26.296C64.1066 26.5993 64.2561 26.8615 64.4511 27.0825C64.6461 27.2992 64.8844 27.4682 65.1661 27.5895C65.4521 27.7108 65.7749 27.7715 66.1346 27.7715ZM77.8964 27.7715L77.8899 29H72.0529V19.64H77.8899V20.8685H73.5804V23.6895H77.0254V24.879H73.5804V27.7715H77.8964ZM82.2601 24.125C82.6068 24.125 82.9101 24.0838 83.1701 24.0015C83.4301 23.9148 83.6468 23.7957 83.8201 23.644C83.9935 23.4923 84.1235 23.3125 84.2101 23.1045C84.2968 22.8922 84.3401 22.6582 84.3401 22.4025C84.3401 21.8912 84.1711 21.5012 83.8331 21.2325C83.4951 20.9638 82.9838 20.8295 82.2991 20.8295H81.0641V24.125H82.2601ZM86.6671 29H85.3086C85.04 29 84.845 28.896 84.7236 28.688L82.5396 25.5355C82.466 25.4272 82.3858 25.3492 82.2991 25.3015C82.2125 25.2538 82.0825 25.23 81.9091 25.23H81.0641V29H79.5431V19.64H82.2991C82.9145 19.64 83.4431 19.7028 83.8851 19.8285C84.3315 19.9542 84.6976 20.134 84.9836 20.368C85.2696 20.5977 85.4798 20.875 85.6141 21.2C85.7528 21.525 85.8221 21.8868 85.8221 22.2855C85.8221 22.6105 85.7723 22.9138 85.6726 23.1955C85.5773 23.4772 85.4365 23.7328 85.2501 23.9625C85.0681 24.1922 84.8428 24.3915 84.5741 24.5605C84.3055 24.7295 84 24.8617 83.6576 24.957C83.844 25.0697 84.0043 25.2278 84.1386 25.4315L86.6671 29ZM91.2011 27.7975C91.5434 27.7975 91.8316 27.7585 92.0656 27.6805C92.3039 27.5982 92.4968 27.4877 92.6441 27.349C92.7958 27.2103 92.9041 27.0478 92.9691 26.8615C93.0384 26.6708 93.0731 26.4672 93.0731 26.2505C93.0731 25.8085 92.9214 25.4618 92.6181 25.2105C92.3191 24.9548 91.8446 24.827 91.1946 24.827H89.3161V27.7975H91.2011ZM89.3161 20.8295V23.7545H90.8371C91.4871 23.7545 91.9724 23.6288 92.2931 23.3775C92.6138 23.1262 92.7741 22.7643 92.7741 22.292C92.7741 21.7763 92.6224 21.4037 92.3191 21.174C92.0201 20.9443 91.5499 20.8295 90.9086 20.8295H89.3161ZM90.9086 19.64C91.5066 19.64 92.0179 19.6985 92.4426 19.8155C92.8673 19.9282 93.2161 20.0907 93.4891 20.303C93.7621 20.5153 93.9614 20.7753 94.0871 21.083C94.2171 21.3863 94.2821 21.7287 94.2821 22.11C94.2821 22.331 94.2474 22.5455 94.1781 22.7535C94.1131 22.9572 94.0091 23.15 93.8661 23.332C93.7274 23.5097 93.5519 23.67 93.3396 23.813C93.1273 23.956 92.8759 24.0752 92.5856 24.1705C93.9116 24.4522 94.5746 25.1563 94.5746 26.283C94.5746 26.6817 94.4988 27.0478 94.3471 27.3815C94.1998 27.7108 93.9831 27.9968 93.6971 28.2395C93.4154 28.4778 93.0666 28.6642 92.6506 28.7985C92.2346 28.9328 91.7601 29 91.2271 29H87.7951V19.64H90.9086ZM102.132 27.7715L102.125 29H96.2883V19.64H102.125V20.8685H97.8158V23.6895H101.261V24.879H97.8158V27.7715H102.132ZM106.495 24.125C106.842 24.125 107.145 24.0838 107.405 24.0015C107.665 23.9148 107.882 23.7957 108.055 23.644C108.229 23.4923 108.359 23.3125 108.445 23.1045C108.532 22.8922 108.575 22.6582 108.575 22.4025C108.575 21.8912 108.406 21.5012 108.068 21.2325C107.73 20.9638 107.219 20.8295 106.534 20.8295H105.299V24.125H106.495ZM110.902 29H109.544C109.275 29 109.08 28.896 108.959 28.688L106.775 25.5355C106.701 25.4272 106.621 25.3492 106.534 25.3015C106.448 25.2538 106.318 25.23 106.144 25.23H105.299V29H103.778V19.64H106.534C107.15 19.64 107.678 19.7028 108.12 19.8285C108.567 19.9542 108.933 20.134 109.219 20.368C109.505 20.5977 109.715 20.875 109.849 21.2C109.988 21.525 110.057 21.8868 110.057 22.2855C110.057 22.6105 110.008 22.9138 109.908 23.1955C109.813 23.4772 109.672 23.7328 109.485 23.9625C109.303 24.1922 109.078 24.3915 108.809 24.5605C108.541 24.7295 108.235 24.8617 107.893 24.957C108.079 25.0697 108.24 25.2278 108.374 25.4315L110.902 29ZM116.983 25.49L115.696 22.071C115.592 21.8067 115.486 21.4708 115.378 21.0635C115.33 21.2672 115.278 21.4557 115.222 21.629C115.166 21.798 115.114 21.9475 115.066 22.0775L113.779 25.49H116.983ZM119.863 29H118.686C118.552 29 118.444 28.9675 118.361 28.9025C118.279 28.8332 118.216 28.7487 118.173 28.649L117.393 26.582H113.363L112.583 28.649C112.548 28.7357 112.488 28.8158 112.401 28.8895C112.314 28.9632 112.206 29 112.076 29H110.899L114.611 19.64H116.151L119.863 29ZM126.483 20.9075H123.564V29H122.05V20.9075H119.125V19.64H126.483V20.9075ZM131.477 27.7715C131.837 27.7715 132.158 27.7108 132.439 27.5895C132.725 27.4682 132.966 27.2992 133.161 27.0825C133.36 26.8658 133.512 26.6058 133.616 26.3025C133.72 25.9948 133.772 25.6547 133.772 25.282V19.64H135.286V25.282C135.286 25.8323 135.197 26.3415 135.02 26.8095C134.846 27.2775 134.595 27.6827 134.266 28.025C133.936 28.363 133.536 28.6295 133.063 28.8245C132.595 29.0152 132.067 29.1105 131.477 29.1105C130.888 29.1105 130.357 29.0152 129.885 28.8245C129.417 28.6295 129.018 28.363 128.689 28.025C128.359 27.6827 128.106 27.2775 127.928 26.8095C127.755 26.3415 127.668 25.8323 127.668 25.282V19.64H129.189V25.2755C129.189 25.6482 129.241 25.9883 129.345 26.296C129.449 26.5993 129.599 26.8615 129.794 27.0825C129.989 27.2992 130.227 27.4682 130.509 27.5895C130.795 27.7108 131.118 27.7715 131.477 27.7715ZM145.144 19.64V29H144.37C144.253 29 144.154 28.9805 144.071 28.9415C143.989 28.8982 143.911 28.8288 143.837 28.7335L138.696 22.1295C138.709 22.2552 138.717 22.3808 138.722 22.5065C138.73 22.6278 138.735 22.7405 138.735 22.8445V29H137.396V19.64H138.189C138.254 19.64 138.308 19.6443 138.351 19.653C138.399 19.6573 138.442 19.6682 138.481 19.6855C138.52 19.7028 138.557 19.7288 138.592 19.7635C138.626 19.7982 138.663 19.8415 138.702 19.8935L143.85 26.504C143.837 26.3697 143.826 26.2375 143.818 26.1075C143.813 25.9775 143.811 25.8562 143.811 25.7435V19.64H145.144ZM155.038 24.3915V28.0965C154.106 28.7682 153.023 29.104 151.788 29.104C151.029 29.104 150.343 28.987 149.727 28.753C149.116 28.5147 148.594 28.1853 148.161 27.765C147.727 27.3403 147.394 26.8355 147.16 26.2505C146.926 25.6655 146.809 25.022 146.809 24.32C146.809 23.6137 146.921 22.968 147.147 22.383C147.372 21.7937 147.695 21.2888 148.115 20.8685C148.536 20.4438 149.043 20.1167 149.636 19.887C150.23 19.653 150.897 19.536 151.638 19.536C152.015 19.536 152.364 19.5663 152.685 19.627C153.01 19.6833 153.311 19.7635 153.588 19.8675C153.866 19.9715 154.121 20.0972 154.355 20.2445C154.589 20.3918 154.804 20.5565 154.999 20.7385L154.563 21.434C154.494 21.5423 154.405 21.6095 154.297 21.6355C154.188 21.6615 154.071 21.6355 153.946 21.5575C153.82 21.4838 153.686 21.4058 153.543 21.3235C153.404 21.2412 153.244 21.1653 153.062 21.096C152.88 21.0223 152.67 20.9638 152.431 20.9205C152.193 20.8728 151.911 20.849 151.586 20.849C151.092 20.849 150.646 20.9313 150.247 21.096C149.853 21.2563 149.515 21.4882 149.233 21.7915C148.952 22.0905 148.735 22.4545 148.583 22.8835C148.432 23.3125 148.356 23.7913 148.356 24.32C148.356 24.879 148.436 25.3795 148.596 25.8215C148.757 26.2592 148.984 26.6318 149.279 26.9395C149.573 27.2428 149.929 27.4747 150.345 27.635C150.765 27.7953 151.233 27.8755 151.749 27.8755C152.134 27.8755 152.477 27.8343 152.776 27.752C153.079 27.6697 153.376 27.5548 153.666 27.4075V25.5485H152.36C152.26 25.5485 152.182 25.5225 152.126 25.4705C152.069 25.4142 152.041 25.3427 152.041 25.256V24.3915H155.038Z" fill="white"></path><path d="M23.3679 9.46171L26 6.80725L25.5809 6.3914C22.6569 3.4637 19.1275 2 14.9941 2C10.8451 2 7.30766 3.4637 4.3866 6.3914C1.46211 9.31558 0 12.8488 0 16.9897C0 21.1431 1.46211 24.6815 4.3866 27.6086C7.30766 30.5363 10.8451 32 14.9941 32C19.1275 32 22.6569 30.5363 25.5809 27.6086L25.7701 27.4425V16.4042H16.7282V21.5045C17.1436 21.3782 17.5422 21.2114 17.918 21.0019V17.5958H24.5576V26.9399C21.8568 29.5462 18.6261 30.8348 14.8676 30.809C11.0948 30.7656 7.88678 29.4139 5.24094 26.7511C2.54005 24.0614 1.18975 20.8073 1.18975 16.9897C1.18975 13.1846 2.54005 9.9298 5.24094 7.22597C7.84406 4.62 10.9971 3.274 14.7011 3.19105C18.3913 3.12191 21.5933 4.33361 24.3082 6.82988L23.3475 7.769C20.9798 5.61047 18.1961 4.52816 14.9941 4.52816C12.0555 4.52816 9.45208 5.44942 7.18439 7.28908C7.18439 7.28908 7.1755 7.28908 7.16145 7.28908C7.12132 7.32957 7.07287 7.37233 7.01553 7.41567C6.97511 7.45616 6.92666 7.49862 6.86874 7.53911C6.86874 7.55373 6.86358 7.56174 6.84896 7.56174C4.65007 9.45591 3.27999 11.8467 2.73528 14.7313C2.22154 17.5751 2.63179 20.2643 3.96747 22.8014C4.01076 22.8852 4.05118 22.9621 4.0939 23.0313C4.13403 23.1004 4.18249 23.1834 4.23982 23.2809C4.51791 23.7689 4.83642 24.237 5.20051 24.6815C5.20051 24.6962 5.20653 24.716 5.22029 24.7446C5.27534 24.8138 5.33784 24.885 5.40979 24.9542C5.43531 24.9975 5.46398 25.032 5.49264 25.0575C5.51902 25.0862 5.56174 25.1347 5.61592 25.2039C8.082 28.034 11.2069 29.4483 14.9941 29.4483C17.5685 29.4483 19.9222 28.7164 22.052 27.253L23.4313 26.2514V18.8067H19.1905V21.5242C18.0069 22.6126 16.6078 23.1576 14.9941 23.1576C13.2966 23.1576 11.8491 22.5575 10.6507 21.3583C9.43748 20.1584 8.83288 18.7031 8.83288 16.9897C8.83288 15.288 9.43748 13.8384 10.6507 12.6416C11.8491 11.4279 13.2966 10.8223 14.9941 10.8223C16.7056 10.8223 18.1617 11.4279 19.3571 12.6416L19.7754 13.0584L22.4279 10.4036L22.0087 9.98718C20.0742 8.04966 17.7374 7.07991 14.9941 7.07991C12.5853 7.07991 10.4612 7.86084 8.62356 9.42211C8.62356 9.40742 8.60375 9.42211 8.56338 9.46171C8.45182 9.55958 8.36008 9.64539 8.29102 9.71453C8.24772 9.74326 8.18468 9.79748 8.10182 9.88131C7.99026 9.99291 7.95555 10.0277 7.99826 9.98718C7.99826 9.98718 7.99026 9.99292 7.97852 10.007C7.97852 10.0216 7.96964 10.0277 7.95555 10.0277C7.87276 10.1106 7.7833 10.2082 7.68635 10.3198C7.61442 10.389 7.59982 10.4036 7.64312 10.3631C6.39026 11.7407 5.59614 13.3594 5.26359 15.2132C4.8453 17.4437 5.16611 19.5672 6.2237 21.5877L6.24405 21.631C6.29852 21.7427 6.3616 21.8543 6.43356 21.9637C6.45936 22.021 6.482 22.0615 6.49376 22.0902C6.5511 22.1731 6.61417 22.2707 6.6824 22.3827C6.72283 22.4369 6.75121 22.4802 6.76611 22.509C6.77987 22.5236 6.79449 22.5434 6.80854 22.5721C6.8203 22.5979 6.83434 22.6206 6.84896 22.6323C6.83434 22.6065 6.87763 22.6611 6.97511 22.8014C7.01553 22.8565 7.03818 22.891 7.03818 22.905C7.12132 23.0167 7.20991 23.1289 7.30766 23.2408C7.30766 23.2408 7.30766 23.2466 7.30766 23.2612C7.32228 23.2612 7.33031 23.2612 7.33031 23.2612C8.8612 25.1436 10.8164 26.3059 13.1988 26.7511C13.8094 26.8627 14.4149 26.9201 15.0138 26.9201C17.0608 26.9201 18.9271 26.3346 20.6099 25.1634L20.9021 24.9746V23.5338L19.942 24.1796C17.9664 25.5454 15.7939 26.0077 13.4285 25.5595C11.6453 25.2412 10.1201 24.4376 8.85262 23.1576C8.64624 22.9483 8.44294 22.7299 8.24772 22.509C8.24772 22.4949 8.24772 22.486 8.24772 22.486C8.16486 22.403 8.082 22.2994 7.99826 22.1731C7.99826 22.1591 7.98424 22.1387 7.95555 22.11C7.88678 22.0122 7.82374 21.9235 7.76921 21.8402C7.7546 21.8115 7.73486 21.7771 7.70616 21.7338C7.6371 21.6368 7.57398 21.5472 7.51696 21.4643C7.51696 21.4502 7.50287 21.4215 7.4771 21.3782C7.40511 21.2694 7.35094 21.1629 7.30766 21.065C7.28187 21.0254 7.27327 21.0165 7.28789 21.0453C6.49376 19.5126 6.18099 17.8825 6.34698 16.1522C6.51641 14.4101 7.14999 12.8569 8.24772 11.4911C8.33146 11.3935 8.4232 11.2904 8.52008 11.1782C8.52008 11.1782 8.5407 11.1552 8.58312 11.1148C8.66686 11.0319 8.744 10.9547 8.81277 10.8857C8.84146 10.8425 8.8899 10.7939 8.95896 10.7394C9.0132 10.6814 9.06245 10.6329 9.10494 10.5924C9.18861 10.5095 9.27147 10.4324 9.35462 10.3631C9.36922 10.3485 9.3773 10.3405 9.3773 10.3405C9.59828 10.1591 9.82792 9.98718 10.0656 9.81813C11.5424 8.80187 13.1847 8.29359 14.9941 8.29359C17.1781 8.29359 19.0876 9.00252 20.7164 10.4265L19.7557 11.3875C18.3076 10.145 16.6308 9.55958 14.7217 9.63158C12.8003 9.71453 11.1579 10.4324 9.7935 11.7835C8.36008 13.2191 7.64312 14.9551 7.64312 16.9897C7.64312 19.0248 8.36008 20.7669 9.7935 22.2165C11.2267 23.6515 12.9612 24.3684 14.9941 24.3684C17.0261 24.3684 18.7663 23.6515 20.2144 22.2165L20.3809 22.0268V20.0006H22.2415V25.6433L21.3637 26.2715C19.1078 27.8187 16.6218 28.4587 13.9069 28.1941C11.221 27.9444 8.93034 26.8627 7.03818 24.9542C6.89742 24.8276 6.76611 24.6962 6.63969 24.5581C6.61417 24.5294 6.57088 24.4809 6.51641 24.4117C6.47312 24.3547 6.44445 24.3199 6.43356 24.3053C6.45936 24.3486 6.44445 24.3339 6.39026 24.2657C6.15231 23.9841 5.93156 23.694 5.72229 23.3869C5.13744 22.5345 4.67874 21.631 4.34332 20.6693C4.3287 20.6119 4.30891 20.5427 4.28024 20.4598C4.26562 20.4024 4.25445 20.3622 4.23982 20.3335C4.22577 20.3048 4.21115 20.2704 4.19739 20.2299C4.18249 20.1466 4.16271 20.0755 4.13403 20.0204C3.87 19.0308 3.73869 18.0206 3.73869 16.9897C3.73869 16.7231 3.74442 16.4533 3.75847 16.1749V16.1522C3.7731 16.1117 3.77826 16.0486 3.77826 15.9654C3.79288 15.8824 3.80176 15.8244 3.80176 15.7987V15.7759C3.82728 15.4976 3.87 15.2249 3.92504 14.9611C4.11941 13.8619 4.47548 12.8225 4.99152 11.8467C4.99152 11.818 4.99725 11.7981 5.0113 11.7835C5.06835 11.6719 5.13744 11.5456 5.22029 11.4081C5.24896 11.3648 5.27534 11.3163 5.304 11.2612C5.36135 11.1782 5.41553 11.0804 5.47 10.9687C5.91694 10.2713 6.43872 9.63158 7.03818 9.04579C7.14999 8.93419 7.26724 8.81597 7.39336 8.68967C7.50287 8.578 7.59982 8.49475 7.68635 8.44053C7.68635 8.42591 7.70616 8.40291 7.7466 8.37742C8.02754 8.13864 8.31077 7.92336 8.60375 7.72852C10.5097 6.40544 12.6403 5.74272 14.9941 5.74272C18.0986 5.74272 20.745 6.84164 22.9293 9.04579L23.3679 9.46171Z" fill="#D0B578"></path></svg>